<svg width="96" height="91" viewBox="0 0 96 91" fill="none" xmlns="http://www.w3.org/2000/svg">
<path d="M94.0092 44.7695L53.0935 3.72528L50.3509 0.972703C49.7261 0.34967 48.881 0 48.0002 0C47.1194 0 46.2743 0.34967 45.6494 0.972703L1.99116 44.7695C1.35086 45.4096 0.844819 46.172 0.502908 47.0117C0.160997 47.8513 -0.00985438 48.7512 0.000438909 49.6582C0.0427947 53.3992 3.14536 56.3856 6.87267 56.3856H11.373V91H84.6274V56.3856H89.223C91.0337 56.3856 92.7385 55.6735 94.0198 54.3876C94.6507 53.7564 95.1506 53.0059 95.4905 52.1795C95.8304 51.3531 96.0035 50.4672 95.9999 49.5732C95.9999 47.7665 95.2905 46.0554 94.0092 44.7695ZM53.93 83.3481H42.0704V61.6675H53.93V83.3481ZM77.0034 48.7336V83.3481H60.7069V59.1169C60.7069 56.7682 58.8115 54.8658 56.4714 54.8658H39.529C37.1889 54.8658 35.2934 56.7682 35.2934 59.1169V83.3481H18.997V48.7336H8.83163L48.0108 9.44299L50.4568 11.898L87.1793 48.7336H77.0034Z" fill="url(#paint0_linear_9_3)"/>
<defs>
<linearGradient id="paint0_linear_9_3" x1="22.4" y1="3.21171" x2="71.5017" y2="117.097" gradientUnits="userSpaceOnUse">
<stop stop-color="#8335F0"/>
<stop offset="0.921875" stop-color="#2F2C33"/>
</linearGradient>
</defs>
</svg>
