<svg width="41" height="41" viewBox="0 0 41 41" fill="none" xmlns="http://www.w3.org/2000/svg">
<path fill-rule="evenodd" clip-rule="evenodd" d="M20.5 35.875C28.9913 35.875 35.875 28.9913 35.875 20.5C35.875 12.0087 28.9913 5.12502 20.5 5.12502C12.0087 5.12502 5.12502 12.0087 5.12502 20.5C5.12502 28.9913 12.0087 35.875 20.5 35.875ZM20.5 37.5834C29.9351 37.5834 37.5833 29.9351 37.5833 20.5C37.5833 11.0649 29.9351 3.41669 20.5 3.41669C11.0649 3.41669 3.41668 11.0649 3.41668 20.5C3.41668 29.9351 11.0649 37.5834 20.5 37.5834Z" fill="#F9F9F9"/>
<path d="M10.25 30.4339C10.25 29.5516 10.9094 28.8059 11.7875 28.7085C18.3774 27.9791 22.6525 28.0448 29.2279 28.7248C29.5562 28.7592 29.8674 28.8886 30.1235 29.097C30.3795 29.3055 30.5693 29.584 30.6697 29.8985C30.7701 30.213 30.7767 30.55 30.6887 30.8682C30.6007 31.1864 30.422 31.4721 30.1743 31.6904C22.4142 38.4546 17.9794 38.3615 10.7967 31.6973C10.4465 31.3727 10.25 30.9114 10.25 30.4348V30.4339Z" fill="#F9F9F9"/>
<path fill-rule="evenodd" clip-rule="evenodd" d="M29.1399 29.5738C22.6167 28.899 18.4031 28.8358 11.8806 29.5576C11.6659 29.5826 11.468 29.686 11.3247 29.8478C11.1815 30.0097 11.103 30.2187 11.1042 30.4348C11.1042 30.6791 11.2058 30.9106 11.3775 31.0712C14.9377 34.3734 17.6352 35.8656 20.272 35.875C22.9182 35.8844 25.7608 34.4042 29.6131 31.0473C29.7355 30.9383 29.8236 30.7962 29.8667 30.6381C29.9099 30.4801 29.9061 30.3129 29.856 30.1569C29.8059 30.0009 29.7115 29.8629 29.5844 29.7595C29.4573 29.6561 29.3029 29.5919 29.1399 29.5747V29.5738ZM11.6936 27.8595C18.3527 27.1224 22.6901 27.189 29.3167 27.8749C29.8107 27.9265 30.2789 28.1209 30.6641 28.4345C31.0492 28.7481 31.3346 29.1671 31.4852 29.6404C31.6359 30.1136 31.6453 30.6205 31.5123 31.099C31.3793 31.5775 31.1096 32.0069 30.7364 32.3345C26.8286 35.7409 23.5742 37.5962 20.2668 37.5834C16.9501 37.5714 13.8392 35.6845 10.2167 32.3234C9.95736 32.0818 9.7506 31.7893 9.60936 31.4643C9.46813 31.1392 9.39545 30.7884 9.39587 30.434C9.39462 29.7971 9.62838 29.1822 10.0524 28.707C10.4763 28.2318 11.0607 27.9298 11.6936 27.8587V27.8595Z" fill="#F9F9F9"/>
<path d="M27.3333 17.0833C27.3333 18.8956 26.6134 20.6337 25.3319 21.9152C24.0504 23.1967 22.3123 23.9167 20.5 23.9167C18.6877 23.9167 16.9496 23.1967 15.6681 21.9152C14.3866 20.6337 13.6667 18.8956 13.6667 17.0833C13.6667 15.271 14.3866 13.5329 15.6681 12.2514C16.9496 10.9699 18.6877 10.25 20.5 10.25C22.3123 10.25 24.0504 10.9699 25.3319 12.2514C26.6134 13.5329 27.3333 15.271 27.3333 17.0833Z" fill="#F9F9F9"/>
<path fill-rule="evenodd" clip-rule="evenodd" d="M20.5 22.2083C21.8592 22.2083 23.1628 21.6684 24.1239 20.7073C25.0851 19.7461 25.625 18.4426 25.625 17.0833C25.625 15.7241 25.0851 14.4205 24.1239 13.4594C23.1628 12.4983 21.8592 11.9583 20.5 11.9583C19.1408 11.9583 17.8372 12.4983 16.8761 13.4594C15.915 14.4205 15.375 15.7241 15.375 17.0833C15.375 18.4426 15.915 19.7461 16.8761 20.7073C17.8372 21.6684 19.1408 22.2083 20.5 22.2083ZM20.5 23.9167C22.3123 23.9167 24.0504 23.1967 25.3319 21.9152C26.6134 20.6337 27.3333 18.8956 27.3333 17.0833C27.3333 15.271 26.6134 13.5329 25.3319 12.2514C24.0504 10.9699 22.3123 10.25 20.5 10.25C18.6877 10.25 16.9496 10.9699 15.6681 12.2514C14.3866 13.5329 13.6667 15.271 13.6667 17.0833C13.6667 18.8956 14.3866 20.6337 15.6681 21.9152C16.9496 23.1967 18.6877 23.9167 20.5 23.9167Z" fill="#F9F9F9"/>
</svg>
